<?xml version="1.0" encoding="utf-8"?>
<!-- Generator: Adobe Illustrator 16.0.0, SVG Export Plug-In . SVG Version: 6.00 Build 0)  -->
<!DOCTYPE svg PUBLIC "-//W3C//DTD SVG 1.1//EN" "http://www.w3.org/Graphics/SVG/1.1/DTD/svg11.dtd">
<svg version="1.1" id="Capa_1" xmlns="http://www.w3.org/2000/svg" xmlns:xlink="http://www.w3.org/1999/xlink" x="0px" y="0px"
	 width="34.25px" height="28.688px" viewBox="0 0 34.25 28.688" enable-background="new 0 0 34.25 28.688" xml:space="preserve">
<rect x="-1058" y="-153.078" fill="none" width="322.817" height="136.46"/>
<text transform="matrix(1 0 0 1 -1058 -137.459)"><tspan x="0" y="0" font-family="'MyriadPro-Regular'" font-size="22">Tw          @inmocardinali</tspan><tspan x="0" y="52.801" font-family="'MyriadPro-Regular'" font-size="22">Instg.     @inmocardinali</tspan><tspan x="0" y="105.601" font-family="'MyriadPro-Regular'" font-size="22">Face.      @cardinaliinmobiliaria</tspan></text>
<rect x="-1060" y="-1288.5" fill="#38393B" width="1920" height="1080"/>
<text transform="matrix(1 0 0 1 -938.6914 -372.8291)" fill="#FFFFFF" font-family="'Montserrat-Regular'" font-size="20.454">e.mail</text>
<text transform="matrix(1 0 0 1 -938.6914 -341.543)" fill="#FFFFFF" font-family="'Montserrat-Light'" font-size="20.454">info@inmobiliariacardinali.com.ar</text>
<g>
	<path fill="#3ECCF0" d="M-405.999-486.379c-0.409,1.521-0.614,3.133-0.614,4.837c0,1.705,0.205,3.317,0.614,4.837
		c0.409,1.521,0.989,2.86,1.739,4.02h-1.268c-0.777-1.146-1.371-2.479-1.78-3.999c-0.409-1.52-0.614-3.14-0.614-4.857
		s0.205-3.337,0.614-4.857s1.002-2.854,1.78-3.999h1.268C-405.01-489.239-405.59-487.899-405.999-486.379z"/>
	<path fill="#3ECCF0" d="M-394.197-485.295c0.818,0.457,1.459,1.094,1.923,1.912c0.463,0.818,0.695,1.746,0.695,2.781
		c0,1.051-0.232,1.988-0.695,2.813c-0.464,0.825-1.104,1.467-1.923,1.923c-0.818,0.457-1.746,0.686-2.782,0.686
		c-1.037,0-1.963-0.229-2.782-0.686c-0.818-0.456-1.459-1.098-1.923-1.923c-0.463-0.824-0.695-1.762-0.695-2.813
		c0-1.035,0.232-1.963,0.695-2.781s1.104-1.455,1.923-1.912s1.745-0.686,2.782-0.686
		C-395.943-485.98-395.016-485.752-394.197-485.295z M-399.065-484.263c-0.613,0.355-1.091,0.853-1.432,1.493
		c-0.341,0.642-0.511,1.371-0.511,2.188c0,0.832,0.17,1.568,0.511,2.209c0.341,0.642,0.818,1.14,1.432,1.493
		c0.614,0.355,1.309,0.532,2.086,0.532s1.473-0.177,2.086-0.532c0.614-0.354,1.091-0.852,1.432-1.493
		c0.341-0.641,0.511-1.377,0.511-2.209c0-0.817-0.17-1.547-0.511-2.188c-0.341-0.641-0.818-1.138-1.432-1.493
		c-0.614-0.354-1.309-0.531-2.086-0.531S-398.452-484.617-399.065-484.263z"/>
	<path fill="#3ECCF0" d="M-390.516-485.939h1.473l3.559,9.348l3.518-9.348h1.432l-4.254,10.718h-1.453L-390.516-485.939z"/>
	<path fill="#3ECCF0" d="M-370.532-484.396c0.873,1.057,1.275,2.479,1.207,4.265h-8.938c0.095,1.146,0.518,2.069,1.268,2.771
		c0.75,0.703,1.677,1.054,2.782,1.054c0.682,0,1.316-0.123,1.902-0.368c0.586-0.245,1.091-0.593,1.514-1.043l0.777,0.777
		c-0.518,0.559-1.142,0.991-1.871,1.299c-0.73,0.307-1.531,0.46-2.404,0.46c-1.036,0-1.957-0.229-2.761-0.686
		c-0.805-0.456-1.435-1.094-1.892-1.912c-0.457-0.818-0.686-1.752-0.686-2.803c0-1.036,0.229-1.967,0.686-2.792
		c0.457-0.824,1.087-1.465,1.892-1.922s1.711-0.686,2.721-0.686C-372.673-485.98-371.405-485.452-370.532-484.396z
		 M-370.553-481.194c-0.068-1.118-0.439-2.008-1.115-2.669c-0.675-0.661-1.558-0.992-2.648-0.992c-1.078,0-1.978,0.334-2.7,1.002
		c-0.723,0.669-1.139,1.555-1.248,2.659H-370.553z"/>
	<path fill="#3ECCF0" d="M-363.158-485.315c0.661-0.43,1.455-0.651,2.383-0.665v1.289c-1.132-0.014-2.042,0.316-2.731,0.991
		c-0.688,0.676-1.081,1.593-1.176,2.751v5.728h-1.371v-10.718h1.371v2.495C-364.328-484.263-363.82-484.886-363.158-485.315z"/>
	<path fill="#3ECCF0" d="M-358.321-490.398c0.777,1.146,1.371,2.479,1.779,3.999c0.409,1.521,0.614,3.14,0.614,4.857
		s-0.205,3.338-0.614,4.857c-0.409,1.521-1.002,2.854-1.779,3.999h-1.268c0.75-1.159,1.33-2.499,1.739-4.02
		c0.409-1.52,0.613-3.132,0.613-4.837c0-1.704-0.205-3.316-0.613-4.837c-0.409-1.521-0.989-2.86-1.739-4.02H-358.321z"/>
</g>
<g>
	<g>
		<g>
			<path fill="#FFFFFF" d="M-233.154-637.616c-2.324,0-4.48-0.423-6.47-1.269c-1.99-0.842-3.71-1.997-5.159-3.459
				c-1.449-1.464-2.58-3.19-3.393-5.182c-0.816-1.991-1.223-4.118-1.223-6.38v-0.091c0-2.263,0.407-4.382,1.223-6.357
				c0.813-1.974,1.944-3.711,3.393-5.202c1.448-1.494,3.182-2.671,5.204-3.53c2.02-0.859,4.251-1.289,6.696-1.289
				c1.478,0,2.827,0.121,4.05,0.36c1.222,0.243,2.332,0.573,3.325,0.996c0.997,0.423,1.917,0.937,2.76,1.539
				c0.846,0.604,1.629,1.267,2.354,1.991l-4.435,5.113c-1.236-1.116-2.496-1.991-3.777-2.625c-1.282-0.633-2.722-0.951-4.321-0.951
				c-1.328,0-2.556,0.257-3.686,0.771c-1.134,0.513-2.105,1.222-2.919,2.127c-0.815,0.904-1.448,1.952-1.901,3.145
				c-0.452,1.191-0.678,2.467-0.678,3.823v0.09c0,1.357,0.226,2.641,0.678,3.847c0.453,1.206,1.077,2.262,1.877,3.166
				c0.799,0.905,1.766,1.622,2.897,2.15c1.131,0.529,2.375,0.791,3.732,0.791c1.809,0,3.341-0.331,4.593-0.994
				c1.252-0.664,2.496-1.568,3.731-2.716l4.435,4.479c-0.813,0.876-1.659,1.66-2.534,2.354c-0.875,0.695-1.831,1.29-2.873,1.788
				c-1.042,0.498-2.181,0.875-3.417,1.131S-231.613-637.616-233.154-637.616z"/>
			<path fill="#FFFFFF" d="M-199.218-670.059h6.424l13.575,31.898h-7.286l-2.895-7.103h-13.395l-2.894,7.103h-7.105
				L-199.218-670.059z M-191.889-651.418l-4.206-10.27l-4.208,10.27H-191.889z"/>
			<path fill="#FFFFFF" d="M-169.809-669.833h14.48c4.012,0,7.089,1.072,9.23,3.214c1.812,1.81,2.717,4.223,2.717,7.238v0.091
				c0,2.564-0.627,4.653-1.879,6.268c-1.252,1.613-2.889,2.798-4.909,3.552l7.738,11.311h-8.145l-6.788-10.135h-0.092h-5.385v10.135
				h-6.968V-669.833z M-155.781-654.449c1.72,0,3.04-0.406,3.958-1.221c0.92-0.815,1.381-1.9,1.381-3.257v-0.092
				c0-1.508-0.482-2.639-1.449-3.393c-0.964-0.754-2.308-1.132-4.025-1.132h-6.925v9.094H-155.781z"/>
			<path fill="#FFFFFF" d="M-132.569-669.833h12.353c2.472,0,4.741,0.4,6.809,1.2c2.065,0.799,3.845,1.908,5.339,3.325
				c1.492,1.419,2.646,3.085,3.462,4.999c0.813,1.918,1.22,3.99,1.22,6.223v0.09c0,2.233-0.407,4.315-1.22,6.244
				c-0.816,1.932-1.971,3.605-3.462,5.023c-1.494,1.418-3.274,2.533-5.339,3.348c-2.068,0.814-4.337,1.221-6.809,1.221h-12.353
				V-669.833z M-120.216-644.449c1.417,0,2.714-0.227,3.891-0.679s2.178-1.1,3.01-1.945c0.829-0.844,1.475-1.839,1.944-2.986
				c0.468-1.146,0.703-2.427,0.703-3.846v-0.091c0-1.388-0.234-2.669-0.703-3.846c-0.469-1.177-1.115-2.187-1.944-3.032
				c-0.832-0.844-1.833-1.499-3.01-1.968c-1.177-0.467-2.474-0.701-3.891-0.701h-5.385v19.094H-120.216z"/>
			<path fill="#FFFFFF" d="M-92.344-669.833h6.968v31.673h-6.968V-669.833z"/>
			<path fill="#FFFFFF" d="M-72.935-669.833h6.425l14.841,19.503v-19.503h6.879v31.673h-5.929l-15.339-20.134v20.134h-6.877
				V-669.833z"/>
			<path fill="#FFFFFF" d="M-21.805-670.059h6.424l13.576,31.898h-7.286l-2.897-7.103H-25.38l-2.897,7.103h-7.103L-21.805-670.059z
				 M-14.476-651.418l-4.208-10.27l-4.209,10.27H-14.476z"/>
			<path fill="#FFFFFF" d="M7.605-669.833h6.968v25.384h15.791v6.289H7.605V-669.833z"/>
			<path fill="#FFFFFF" d="M40.455-669.833h6.969v31.673h-6.969V-669.833z"/>
		</g>
	</g>
	<g>
		<g>
			<path fill="#FFFFFF" d="M-242.34-624.267h1.901v16.853h-1.901V-624.267z"/>
			<path fill="#FFFFFF" d="M-224.675-624.267h1.783l10.616,13.508v-13.508h1.853v16.853h-1.516l-10.88-13.818v13.818h-1.855
				V-624.267z"/>
			<path fill="#FFFFFF" d="M-194.832-624.267h1.928l6.139,9.197l6.139-9.197h1.928v16.853h-1.903v-13.65l-6.139,9.029h-0.097
				l-6.139-9.005v13.626h-1.855V-624.267z"/>
			<path fill="#FFFFFF" d="M-163.855-615.791v-0.049c0-4.646,3.492-8.715,8.619-8.715c5.129,0,8.573,4.02,8.573,8.667
				c0.027,0.023,0.027,0.023,0,0.048c0,4.647-3.489,8.716-8.619,8.716C-160.412-607.124-163.855-611.146-163.855-615.791z
				 M-148.641-615.791v-0.049c0-3.828-2.792-6.957-6.642-6.957c-3.853,0-6.597,3.081-6.597,6.909v0.048
				c0,3.829,2.792,6.957,6.643,6.957C-151.384-608.883-148.641-611.963-148.641-615.791z"/>
			<path fill="#FFFFFF" d="M-131.821-624.267h7.178c1.922,0,3.441,0.555,4.405,1.494c0.697,0.722,1.08,1.612,1.08,2.695v0.048
				c0,2.191-1.346,3.322-2.671,3.9c1.998,0.602,3.611,1.758,3.611,4.069v0.049c0,2.889-2.429,4.597-6.115,4.597h-7.488V-624.267z
				 M-124.958-616.754c2.286,0,3.877-1.035,3.877-3.01v-0.049c0-1.661-1.325-2.745-3.734-2.745h-5.129v5.804H-124.958z
				 M-124.285-609.122c2.553,0,4.144-1.131,4.144-3.01v-0.049c0-1.829-1.54-2.889-4.48-2.889h-5.323v5.947H-124.285z"/>
			<path fill="#FFFFFF" d="M-103.442-624.267h1.901v16.853h-1.901V-624.267z"/>
			<path fill="#FFFFFF" d="M-85.777-624.267h1.904v15.097h9.485v1.756h-11.39V-624.267z"/>
			<path fill="#FFFFFF" d="M-59.879-624.267h1.901v16.853h-1.901V-624.267z"/>
			<path fill="#FFFFFF" d="M-35.978-624.387h1.782l7.679,16.973h-2.046l-1.974-4.453h-9.173l-1.998,4.453h-1.949L-35.978-624.387z
				 M-31.282-613.576l-3.828-8.596l-3.856,8.596H-31.282z"/>
			<path fill="#FFFFFF" d="M-12.367-624.267h7.245c2.07,0,3.734,0.627,4.79,1.685c0.821,0.819,1.3,2,1.3,3.323v0.048
				c0,2.794-1.922,4.43-4.571,4.911l5.178,6.886h-2.34l-4.885-6.549h-0.048h-4.769v6.549h-1.9V-624.267z M-5.292-615.671
				c2.528,0,4.338-1.3,4.338-3.467v-0.049c0-2.07-1.592-3.322-4.313-3.322h-5.199v6.838H-5.292z"/>
			<path fill="#FFFFFF" d="M16.032-624.267h1.901v16.853h-1.901V-624.267z"/>
			<path fill="#FFFFFF" d="M39.934-624.387h1.782l7.682,16.973h-2.049l-1.974-4.453h-9.171l-1.998,4.453h-1.954L39.934-624.387z
				 M44.629-613.576l-3.828-8.596l-3.854,8.596H44.629z"/>
		</g>
	</g>
	<g>
		<path fill="#FFFFFF" d="M-76.784-778.749l16.185-9.249c0,0,0.155-22.563,0.155-31.17c0-6.936-1.712-12.832-17.178-21.763
			c0,0-34.966-22.127-47.712-27.623c-7.614-3.279-20.091-6.097-32.527,0.959c-13.236,7.508-13.872,19.362-13.872,26.903
			c0,20.7-0.24,43.395-0.24,53.812c0,9.648,2.63,20.174,17.937,29.899c13.551,8.61,35.847,21.989,49.584,28.54
			c6.137,2.923,21.497,7.092,31.733-0.563c9.165-6.858,12.434-11.361,12.434-22.96c0-10.692,0-21.285,0-21.285l-17.057,9.726
			c0,0,0.078,8.849,0.078,14.669c0,6.458-11.686,11.963-22.563,5.739c-25.35-14.507-27.105-15.623-44.167-25.829
			c-3.767-2.254-11.556-8.045-11.556-21.281c0-13.313,0.7-35.652,0.076-52.379c-0.477-12.916,13.039-17.137,17.226-14.986
			c12.994,6.686,40.495,24.157,55.004,32.687c3.65,2.148,6.459,6.133,6.459,15.694C-76.784-795.656-76.784-778.749-76.784-778.749z"
			/>
		<path fill="#FFFFFF" d="M-142.076-857.75c0,0,0.431,40.784,0,54.367c-0.32,10.043,1.591,20.405,18.015,30.292
			c16.424,9.885,47.833,29.178,47.833,29.178v-19.611c0,0-31.194-19.157-41.296-26.308c-4.556-3.227-7.652-5.579-7.652-21.206
			c0-17.699,0-42.889,0-42.889l-17.221-7.812L-142.076-857.75z"/>
		<path fill="#FFFFFF" d="M-45.455-781.377l15.066-9.407c0,0,0.318,16.341,0,23.597c-0.365,8.292-3.987,21.604-23.677,26.386
			c0,0,8.526-2.552,8.526-17.777C-45.539-773.806-45.455-781.377-45.455-781.377z"/>
		<path fill="#FFFFFF" d="M-46.255-797.394l16.106-9.007c0,0,0.293-18.337,0.057-24.722c-0.297-8.072,0.78-16.862-16.618-26.667
			c-18.594-10.477-46.636-27.264-46.636-27.264s-18.416-12.197-39.003,2.207c0,0,11.378,1.322,22.019,7
			c10.361,5.53,49.329,30.134,49.329,30.134s14.348,8.072,14.348,22.601C-46.653-806.97-46.255-797.394-46.255-797.394z"/>
	</g>
</g>
<g>
	<g>
		<g>
			<path fill="#FFFFFF" d="M1284.068-637.616c-2.324,0-4.48-0.423-6.471-1.269c-1.989-0.842-3.71-1.997-5.158-3.459
				c-1.449-1.464-2.58-3.19-3.393-5.182c-0.816-1.991-1.223-4.118-1.223-6.38v-0.091c0-2.263,0.406-4.382,1.223-6.357
				c0.813-1.974,1.943-3.711,3.393-5.202c1.448-1.494,3.182-2.671,5.204-3.53c2.02-0.859,4.251-1.289,6.696-1.289
				c1.479,0,2.827,0.121,4.05,0.36c1.222,0.243,2.331,0.573,3.325,0.996c0.996,0.423,1.916,0.937,2.76,1.539
				c0.846,0.604,1.629,1.267,2.354,1.991l-4.436,5.113c-1.235-1.116-2.496-1.991-3.777-2.625c-1.281-0.633-2.722-0.951-4.32-0.951
				c-1.328,0-2.557,0.257-3.687,0.771c-1.134,0.513-2.105,1.222-2.919,2.127c-0.815,0.904-1.448,1.952-1.9,3.145
				c-0.453,1.191-0.679,2.467-0.679,3.823v0.09c0,1.357,0.226,2.641,0.679,3.847c0.452,1.206,1.076,2.262,1.877,3.166
				c0.799,0.905,1.766,1.622,2.896,2.15c1.131,0.529,2.375,0.791,3.732,0.791c1.809,0,3.341-0.331,4.593-0.994
				c1.252-0.664,2.495-1.568,3.731-2.716l4.435,4.479c-0.813,0.876-1.659,1.66-2.534,2.354c-0.875,0.695-1.83,1.29-2.873,1.788
				c-1.041,0.498-2.18,0.875-3.416,1.131S1285.608-637.616,1284.068-637.616z"/>
			<path fill="#FFFFFF" d="M1318.004-670.059h6.424l13.575,31.898h-7.286l-2.895-7.103h-13.395l-2.895,7.103h-7.105
				L1318.004-670.059z M1325.332-651.418l-4.205-10.27l-4.209,10.27H1325.332z"/>
			<path fill="#FFFFFF" d="M1347.413-669.833h14.479c4.012,0,7.09,1.072,9.23,3.214c1.813,1.81,2.717,4.223,2.717,7.238v0.091
				c0,2.564-0.627,4.653-1.879,6.268c-1.253,1.613-2.89,2.798-4.909,3.552l7.738,11.311h-8.145l-6.788-10.135h-0.092h-5.385v10.135
				h-6.968V-669.833z M1361.441-654.449c1.72,0,3.039-0.406,3.957-1.221c0.921-0.815,1.382-1.9,1.382-3.257v-0.092
				c0-1.508-0.482-2.639-1.448-3.393c-0.965-0.754-2.309-1.132-4.025-1.132h-6.926v9.094H1361.441z"/>
			<path fill="#FFFFFF" d="M1384.652-669.833h12.354c2.471,0,4.74,0.4,6.809,1.2c2.065,0.799,3.846,1.908,5.34,3.325
				c1.491,1.419,2.646,3.085,3.462,4.999c0.813,1.918,1.22,3.99,1.22,6.223v0.09c0,2.233-0.406,4.315-1.22,6.244
				c-0.815,1.932-1.971,3.605-3.462,5.023c-1.494,1.418-3.274,2.533-5.34,3.348c-2.068,0.814-4.338,1.221-6.809,1.221h-12.354
				V-669.833z M1397.006-644.449c1.416,0,2.713-0.227,3.891-0.679c1.176-0.452,2.178-1.1,3.01-1.945
				c0.829-0.844,1.475-1.839,1.943-2.986c0.469-1.146,0.703-2.427,0.703-3.846v-0.091c0-1.388-0.234-2.669-0.703-3.846
				s-1.114-2.187-1.943-3.032c-0.832-0.844-1.834-1.499-3.01-1.968c-1.178-0.467-2.475-0.701-3.891-0.701h-5.385v19.094H1397.006z"
				/>
			<path fill="#FFFFFF" d="M1424.878-669.833h6.968v31.673h-6.968V-669.833z"/>
			<path fill="#FFFFFF" d="M1444.287-669.833h6.425l14.841,19.503v-19.503h6.879v31.673h-5.929l-15.339-20.134v20.134h-6.877
				V-669.833z"/>
			<path fill="#FFFFFF" d="M1495.417-670.059h6.424l13.576,31.898h-7.286l-2.897-7.103h-13.392l-2.897,7.103h-7.103
				L1495.417-670.059z M1502.746-651.418l-4.208-10.27l-4.209,10.27H1502.746z"/>
			<path fill="#FFFFFF" d="M1524.827-669.833h6.968v25.384h15.791v6.289h-22.759V-669.833z"/>
			<path fill="#FFFFFF" d="M1557.677-669.833h6.969v31.673h-6.969V-669.833z"/>
		</g>
	</g>
	<g>
		<g>
			<path fill="#FFFFFF" d="M1274.881-624.267h1.901v16.853h-1.901V-624.267z"/>
			<path fill="#FFFFFF" d="M1292.547-624.267h1.782l10.616,13.508v-13.508h1.853v16.853h-1.517l-10.879-13.818v13.818h-1.855
				V-624.267z"/>
			<path fill="#FFFFFF" d="M1322.39-624.267h1.928l6.139,9.197l6.139-9.197h1.928v16.853h-1.903v-13.65l-6.139,9.029h-0.098
				l-6.139-9.005v13.626h-1.854V-624.267z"/>
			<path fill="#FFFFFF" d="M1353.366-615.791v-0.049c0-4.646,3.492-8.715,8.618-8.715c5.129,0,8.573,4.02,8.573,8.667
				c0.026,0.023,0.026,0.023,0,0.048c0,4.647-3.489,8.716-8.618,8.716S1353.366-611.146,1353.366-615.791z M1368.581-615.791v-0.049
				c0-3.828-2.792-6.957-6.642-6.957c-3.854,0-6.598,3.081-6.598,6.909v0.048c0,3.829,2.793,6.957,6.643,6.957
				C1365.838-608.883,1368.581-611.963,1368.581-615.791z"/>
			<path fill="#FFFFFF" d="M1385.4-624.267h7.179c1.923,0,3.44,0.555,4.405,1.494c0.697,0.722,1.079,1.612,1.079,2.695v0.048
				c0,2.191-1.347,3.322-2.671,3.9c1.998,0.602,3.611,1.758,3.611,4.069v0.049c0,2.889-2.43,4.597-6.115,4.597h-7.488V-624.267z
				 M1392.264-616.754c2.286,0,3.877-1.035,3.877-3.01v-0.049c0-1.661-1.324-2.745-3.734-2.745h-5.129v5.804H1392.264z
				 M1392.938-609.122c2.553,0,4.144-1.131,4.144-3.01v-0.049c0-1.829-1.54-2.889-4.48-2.889h-5.323v5.947H1392.938z"/>
			<path fill="#FFFFFF" d="M1413.779-624.267h1.9v16.853h-1.9V-624.267z"/>
			<path fill="#FFFFFF" d="M1431.444-624.267h1.904v15.097h9.485v1.756h-11.39V-624.267z"/>
			<path fill="#FFFFFF" d="M1457.343-624.267h1.901v16.853h-1.901V-624.267z"/>
			<path fill="#FFFFFF" d="M1481.244-624.387h1.782l7.679,16.973h-2.046l-1.974-4.453h-9.173l-1.998,4.453h-1.949L1481.244-624.387z
				 M1485.939-613.576l-3.828-8.596l-3.856,8.596H1485.939z"/>
			<path fill="#FFFFFF" d="M1504.854-624.267h7.245c2.07,0,3.734,0.627,4.79,1.685c0.821,0.819,1.3,2,1.3,3.323v0.048
				c0,2.794-1.922,4.43-4.571,4.911l5.178,6.886h-2.34l-4.885-6.549h-0.048h-4.769v6.549h-1.9V-624.267z M1511.93-615.671
				c2.528,0,4.338-1.3,4.338-3.467v-0.049c0-2.07-1.592-3.322-4.313-3.322h-5.199v6.838H1511.93z"/>
			<path fill="#FFFFFF" d="M1533.254-624.267h1.901v16.853h-1.901V-624.267z"/>
			<path fill="#FFFFFF" d="M1557.155-624.387h1.782l7.682,16.973h-2.049l-1.974-4.453h-9.171l-1.998,4.453h-1.954L1557.155-624.387z
				 M1561.851-613.576l-3.828-8.596l-3.854,8.596H1561.851z"/>
		</g>
	</g>
	<g>
		<path fill="#FFFFFF" d="M1440.438-778.749l16.185-9.249c0,0,0.155-22.563,0.155-31.17c0-6.936-1.712-12.832-17.178-21.763
			c0,0-34.967-22.127-47.713-27.623c-7.613-3.279-20.091-6.097-32.527,0.959c-13.236,7.508-13.871,19.362-13.871,26.903
			c0,20.7-0.24,43.395-0.24,53.812c0,9.648,2.631,20.174,17.938,29.899c13.551,8.61,35.848,21.989,49.584,28.54
			c6.137,2.923,21.497,7.092,31.733-0.563c9.165-6.858,12.434-11.361,12.434-22.96c0-10.692,0-21.285,0-21.285l-17.057,9.726
			c0,0,0.078,8.849,0.078,14.669c0,6.458-11.686,11.963-22.563,5.739c-25.35-14.507-27.104-15.623-44.167-25.829
			c-3.767-2.254-11.557-8.045-11.557-21.281c0-13.313,0.701-35.652,0.076-52.379c-0.477-12.916,13.039-17.137,17.227-14.986
			c12.993,6.686,40.494,24.157,55.004,32.687c3.65,2.148,6.459,6.133,6.459,15.694
			C1440.438-795.656,1440.438-778.749,1440.438-778.749z"/>
		<path fill="#FFFFFF" d="M1375.146-857.75c0,0,0.431,40.784,0,54.367c-0.32,10.043,1.591,20.405,18.015,30.292
			c16.424,9.885,47.834,29.178,47.834,29.178v-19.611c0,0-31.194-19.157-41.297-26.308c-4.555-3.227-7.651-5.579-7.651-21.206
			c0-17.699,0-42.889,0-42.889l-17.221-7.812L1375.146-857.75z"/>
		<path fill="#FFFFFF" d="M1471.767-781.377l15.066-9.407c0,0,0.318,16.341,0,23.597c-0.365,8.292-3.987,21.604-23.677,26.386
			c0,0,8.526-2.552,8.526-17.777C1471.683-773.806,1471.767-781.377,1471.767-781.377z"/>
		<path fill="#FFFFFF" d="M1470.967-797.394l16.106-9.007c0,0,0.293-18.337,0.057-24.722c-0.297-8.072,0.78-16.862-16.618-26.667
			c-18.594-10.477-46.636-27.264-46.636-27.264s-18.416-12.197-39.003,2.207c0,0,11.379,1.322,22.02,7
			c10.36,5.53,49.328,30.134,49.328,30.134s14.348,8.072,14.348,22.601C1470.568-806.97,1470.967-797.394,1470.967-797.394z"/>
	</g>
</g>
<line fill="none" stroke="#3ECCF0" stroke-miterlimit="10" x1="730.285" y1="-1217.261" x2="746.664" y2="-1217.261"/>
<line fill="none" stroke="#3ECCF0" stroke-miterlimit="10" x1="-537.003" y1="-593.154" x2="-520.623" y2="-593.154"/>
<line fill="none" stroke="#3ECCF0" stroke-miterlimit="10" x1="-334.221" y1="-1159.352" x2="-322.639" y2="-1170.935"/>
<g>
	<line fill="none" stroke="#3ECCF0" stroke-miterlimit="10" x1="207.266" y1="-1083.97" x2="223.646" y2="-1083.97"/>
	<line fill="none" stroke="#3ECCF0" stroke-miterlimit="10" x1="207.266" y1="-1077.843" x2="223.646" y2="-1077.843"/>
</g>
<g>
	<line fill="none" stroke="#3ECCF0" stroke-miterlimit="10" x1="590.708" y1="-768.856" x2="607.087" y2="-768.856"/>
	<line fill="none" stroke="#3ECCF0" stroke-miterlimit="10" x1="590.708" y1="-762.729" x2="607.087" y2="-762.729"/>
</g>
<g>
	<line fill="none" stroke="#3ECCF0" stroke-miterlimit="10" x1="714.245" y1="-389.209" x2="714.245" y2="-372.829"/>
	<line fill="none" stroke="#3ECCF0" stroke-miterlimit="10" x1="706.056" y1="-381.019" x2="722.436" y2="-381.019"/>
</g>
<g>
	<line fill="none" stroke="#3ECCF0" stroke-miterlimit="10" x1="-988.176" y1="-732.837" x2="-988.176" y2="-716.457"/>
	<line fill="none" stroke="#3ECCF0" stroke-miterlimit="10" x1="-996.366" y1="-724.647" x2="-979.987" y2="-724.647"/>
</g>
<g>
	<line fill="none" stroke="#3ECCF0" stroke-miterlimit="10" x1="-794.217" y1="-1138.734" x2="-805.799" y2="-1127.151"/>
	<line fill="none" stroke="#3ECCF0" stroke-miterlimit="10" x1="-805.799" y1="-1138.734" x2="-794.217" y2="-1127.151"/>
</g>
<g>
	<line fill="none" stroke="#3ECCF0" stroke-miterlimit="10" x1="122.586" y1="-327.417" x2="111.004" y2="-315.835"/>
	<line fill="none" stroke="#3ECCF0" stroke-miterlimit="10" x1="111.004" y1="-327.417" x2="122.586" y2="-315.835"/>
</g>
<g>
	<path fill="#FFFFFF" d="M-938.691-482.641c0.066-2.198,0.093-4.433,0.209-6.662c0.219-4.215,3.223-7.362,7.435-7.502
		c4.53-0.15,9.073-0.153,13.604,0c4.23,0.143,7.309,3.321,7.417,7.562c0.113,4.428,0.112,8.863,0,13.292
		c-0.107,4.291-3.288,7.458-7.581,7.563c-4.394,0.107-8.794,0.119-13.188,0.004c-4.413-0.116-7.44-3.171-7.691-7.574
		C-938.611-478.17-938.625-480.388-938.691-482.641z M-912.418-482.652c-0.055-2.076-0.079-4.189-0.175-6.3
		c-0.143-3.112-2.075-5.187-5.178-5.271c-4.308-0.116-8.623-0.112-12.931-0.003c-3.059,0.077-5.083,2.072-5.163,5.095
		c-0.115,4.308-0.058,8.621-0.014,12.931c0.007,0.741,0.216,1.52,0.503,2.21c0.839,2.018,2.53,2.868,4.597,3.019
		c1.604,0.117,3.219,0.148,4.828,0.145c2.667-0.007,5.334-0.042,8-0.126c1.337-0.041,2.597-0.409,3.631-1.335
		c1.207-1.078,1.658-2.497,1.729-4.042C-912.494-478.423-912.473-480.52-912.418-482.652z"/>
	<path fill="#FFFFFF" d="M-924.289-475.222c-4.07-0.005-7.348-3.301-7.342-7.382c0.005-4.11,3.282-7.381,7.396-7.383
		c4.087-0.001,7.394,3.323,7.371,7.412C-916.887-478.464-920.167-475.216-924.289-475.222z M-924.265-477.832
		c2.653,0,4.777-2.092,4.788-4.715c0.012-2.704-2.101-4.834-4.784-4.825c-2.652,0.01-4.755,2.105-4.759,4.743
		C-929.024-479.95-926.925-477.832-924.265-477.832z"/>
	<path fill="#FFFFFF" d="M-916.526-491.99c0.979,0.024,1.715,0.811,1.677,1.791c-0.037,0.941-0.832,1.684-1.775,1.657
		c-0.934-0.026-1.698-0.822-1.684-1.757C-918.294-491.271-917.511-492.016-916.526-491.99z"/>
</g>
<g>
	<path fill="#FFFFFF" d="M-784.057-486.993v-2.677c0-0.983,0.169-1.906,0.507-2.768c0.338-0.86,0.8-1.607,1.384-2.237
		c0.583-0.631,1.269-1.131,2.053-1.499c0.784-0.37,1.622-0.555,2.515-0.555h4.336v5.307h-4.336c-0.247,0-0.485,0.16-0.715,0.484
		c-0.231,0.322-0.346,0.715-0.346,1.176v2.769h5.398v5.398h-5.398v13.103h-5.398v-13.103h-4.337v-5.398H-784.057z"/>
</g>
<g>
	<path fill="#FFFFFF" d="M-834.656-492.749c-0.892,1.301-2.005,2.47-3.342,3.509v0.78c0,2.229-0.418,4.484-1.253,6.769
		c-0.836,2.284-2.061,4.345-3.676,6.184c-1.616,1.838-3.603,3.333-5.961,4.484c-2.359,1.151-5.079,1.727-8.161,1.727
		c-1.895,0-3.705-0.269-5.432-0.808c-1.727-0.538-3.352-1.29-4.875-2.256c0.259,0.037,0.52,0.056,0.78,0.056
		c0.259,0,0.538,0,0.835,0c3.193,0,5.96-0.947,8.3-2.841c-1.486-0.037-2.795-0.492-3.928-1.365
		c-1.133-0.872-1.903-1.978-2.312-3.314c0.445,0.111,0.854,0.167,1.225,0.167c0.334,0,0.641-0.019,0.92-0.056
		c0.278-0.037,0.565-0.092,0.863-0.167c-1.56-0.334-2.851-1.104-3.872-2.313c-1.021-1.206-1.531-2.626-1.531-4.261v-0.056
		c0.445,0.223,0.919,0.408,1.42,0.557c0.501,0.149,1.067,0.224,1.699,0.224c-0.966-0.595-1.708-1.374-2.229-2.341
		c-0.52-0.965-0.78-2.041-0.78-3.23c0-1.188,0.297-2.32,0.892-3.398c1.671,2.081,3.695,3.742,6.072,4.986
		c2.376,1.244,4.958,1.922,7.743,2.033c-0.111-0.445-0.167-0.928-0.167-1.448c0-0.928,0.176-1.811,0.529-2.646
		c0.353-0.835,0.836-1.56,1.448-2.172c0.613-0.613,1.318-1.096,2.117-1.448c0.798-0.354,1.661-0.529,2.59-0.529
		c1.002,0,1.912,0.194,2.729,0.584c0.816,0.391,1.541,0.901,2.172,1.532c0.742-0.111,1.485-0.314,2.229-0.612
		c0.742-0.297,1.429-0.613,2.061-0.947c-0.594,1.56-1.579,2.785-2.952,3.677c0.705-0.074,1.374-0.204,2.005-0.39
		C-835.864-492.266-835.25-492.488-834.656-492.749z"/>
</g>
<g>
	<path fill="#FFFFFF" d="M-69.375,16.804c0.066-2.198,0.094-4.433,0.209-6.662c0.219-4.215,3.223-7.362,7.436-7.502
		c4.529-0.15,9.072-0.153,13.604,0c4.229,0.143,7.309,3.321,7.417,7.562c0.113,4.428,0.112,8.863,0.001,13.292
		c-0.107,4.291-3.288,7.458-7.582,7.563c-4.394,0.107-8.794,0.119-13.188,0.004c-4.412-0.116-7.439-3.171-7.69-7.574
		C-69.295,21.274-69.309,19.057-69.375,16.804z M-43.102,16.792c-0.055-2.076-0.079-4.189-0.176-6.3
		c-0.143-3.112-2.074-5.187-5.178-5.271c-4.308-0.116-8.623-0.112-12.932-0.003c-3.059,0.077-5.082,2.072-5.162,5.095
		c-0.115,4.308-0.059,8.621-0.014,12.931c0.008,0.741,0.217,1.52,0.503,2.21c0.839,2.018,2.53,2.868,4.597,3.019
		c1.605,0.117,3.219,0.148,4.828,0.145c2.668-0.007,5.335-0.042,8-0.126c1.337-0.041,2.597-0.409,3.631-1.335
		c1.207-1.078,1.658-2.497,1.729-4.042C-43.178,21.021-43.156,18.925-43.102,16.792z"/>
	<path fill="#FFFFFF" d="M-54.973,24.223c-4.07-0.005-7.348-3.301-7.342-7.382c0.005-4.11,3.281-7.381,7.396-7.383
		c4.087-0.001,7.394,3.323,7.371,7.412C-47.57,20.98-50.85,24.229-54.973,24.223z M-54.948,21.612c2.653,0,4.776-2.092,4.788-4.715
		c0.012-2.704-2.101-4.834-4.784-4.825c-2.651,0.01-4.755,2.105-4.759,4.743C-59.707,19.494-57.608,21.612-54.948,21.612z"/>
	<path fill="#FFFFFF" d="M-47.21,7.454c0.979,0.024,1.715,0.811,1.677,1.791c-0.037,0.941-0.832,1.684-1.775,1.657
		c-0.934-0.026-1.697-0.822-1.684-1.757C-48.979,8.173-48.194,7.429-47.21,7.454z"/>
</g>
<g>
	<path fill="#FFFFFF" d="M85.184,12.053V9.376c0-0.983,0.168-1.906,0.507-2.768c0.339-0.86,0.8-1.607,1.384-2.237
		c0.584-0.631,1.27-1.131,2.054-1.499c0.784-0.37,1.622-0.555,2.515-0.555h4.336v5.307h-4.336c-0.246,0-0.484,0.16-0.715,0.484
		c-0.231,0.322-0.347,0.715-0.347,1.176v2.769h5.397v5.398h-5.397v13.103h-5.397V17.451h-4.338v-5.398H85.184z"/>
</g>
<g>
	<path fill="#FFFFFF" d="M33.475,4.205c-0.892,1.301-2.006,2.47-3.342,3.509v0.78c0,2.229-0.418,4.484-1.254,6.769
		s-2.061,4.345-3.676,6.184c-1.616,1.838-3.604,3.333-5.961,4.484c-2.359,1.151-5.08,1.727-8.161,1.727
		c-1.895,0-3.704-0.269-5.432-0.808c-1.728-0.538-3.353-1.29-4.874-2.256c0.259,0.037,0.52,0.056,0.779,0.056s0.539,0,0.836,0
		c3.193,0,5.961-0.947,8.301-2.841c-1.486-0.037-2.796-0.492-3.928-1.365c-1.134-0.872-1.904-1.978-2.313-3.314
		c0.445,0.111,0.854,0.167,1.226,0.167c0.335,0,0.642-0.019,0.92-0.056s0.565-0.092,0.863-0.167
		c-1.56-0.334-2.851-1.104-3.872-2.313c-1.021-1.206-1.531-2.626-1.531-4.261v-0.056c0.445,0.223,0.919,0.408,1.42,0.557
		c0.502,0.149,1.067,0.224,1.699,0.224C4.209,10.63,3.467,9.851,2.947,8.884c-0.52-0.965-0.779-2.041-0.779-3.23
		c0-1.188,0.297-2.32,0.891-3.398C4.73,4.336,6.754,5.997,9.131,7.241s4.958,1.922,7.743,2.033
		c-0.111-0.445-0.167-0.928-0.167-1.448c0-0.928,0.176-1.811,0.529-2.646c0.353-0.835,0.836-1.56,1.448-2.172
		c0.612-0.613,1.317-1.096,2.117-1.448C21.6,1.206,22.463,1.03,23.393,1.03c1.002,0,1.912,0.194,2.729,0.584
		c0.816,0.391,1.541,0.901,2.173,1.532c0.742-0.111,1.485-0.314,2.229-0.612c0.742-0.297,1.429-0.613,2.061-0.947
		c-0.595,1.56-1.579,2.785-2.952,3.677c0.705-0.074,1.373-0.204,2.006-0.39C32.268,4.688,32.881,4.466,33.475,4.205z"/>
</g>
<g>
	<path fill="#3ECCF0" d="M-619.718-482.641c0.066-2.198,0.093-4.433,0.209-6.662c0.219-4.215,3.223-7.362,7.435-7.502
		c4.53-0.15,9.074-0.153,13.604,0c4.229,0.143,7.309,3.321,7.417,7.562c0.113,4.428,0.112,8.863,0,13.292
		c-0.108,4.291-3.288,7.458-7.582,7.563c-4.394,0.107-8.794,0.119-13.187,0.004c-4.413-0.116-7.44-3.171-7.691-7.574
		C-619.638-478.17-619.652-480.388-619.718-482.641z M-593.444-482.652c-0.055-2.076-0.079-4.189-0.175-6.3
		c-0.143-3.112-2.075-5.187-5.178-5.271c-4.308-0.116-8.623-0.112-12.931-0.003c-3.059,0.077-5.083,2.072-5.163,5.095
		c-0.114,4.308-0.058,8.621-0.014,12.931c0.008,0.741,0.217,1.52,0.503,2.21c0.838,2.018,2.53,2.868,4.597,3.019
		c1.604,0.117,3.218,0.148,4.828,0.145c2.667-0.007,5.334-0.042,8-0.126c1.337-0.041,2.597-0.409,3.631-1.335
		c1.207-1.078,1.658-2.497,1.729-4.042C-593.52-478.423-593.499-480.52-593.444-482.652z"/>
	<path fill="#3ECCF0" d="M-605.315-475.222c-4.07-0.005-7.348-3.301-7.342-7.382c0.005-4.11,3.282-7.381,7.396-7.383
		c4.087-0.001,7.394,3.323,7.371,7.412C-597.914-478.464-601.193-475.216-605.315-475.222z M-605.292-477.832
		c2.653,0,4.777-2.092,4.789-4.715c0.012-2.704-2.101-4.834-4.785-4.825c-2.651,0.01-4.754,2.105-4.758,4.743
		C-610.05-479.95-607.951-477.832-605.292-477.832z"/>
	<path fill="#3ECCF0" d="M-597.553-491.99c0.979,0.024,1.715,0.811,1.677,1.791c-0.037,0.941-0.832,1.684-1.775,1.657
		c-0.935-0.026-1.698-0.822-1.684-1.757C-599.321-491.271-598.538-492.016-597.553-491.99z"/>
</g>
<g>
	<path fill="#3ECCF0" d="M-465.084-486.993v-2.677c0-0.983,0.169-1.906,0.508-2.768c0.338-0.86,0.8-1.607,1.384-2.237
		c0.584-0.631,1.269-1.131,2.054-1.499c0.784-0.37,1.622-0.555,2.514-0.555h4.337v5.307h-4.337c-0.247,0-0.484,0.16-0.715,0.484
		c-0.231,0.322-0.346,0.715-0.346,1.176v2.769h5.398v5.398h-5.398v13.103h-5.398v-13.103h-4.336v-5.398H-465.084z"/>
</g>
<g>
	<path fill="#3ECCF0" d="M-515.683-492.749c-0.892,1.301-2.005,2.47-3.343,3.509v0.78c0,2.229-0.417,4.484-1.253,6.769
		c-0.836,2.284-2.062,4.345-3.677,6.184c-1.616,1.838-3.603,3.333-5.961,4.484s-5.079,1.727-8.16,1.727
		c-1.895,0-3.705-0.269-5.432-0.808c-1.727-0.538-3.352-1.29-4.875-2.256c0.259,0.037,0.52,0.056,0.78,0.056
		c0.259,0,0.538,0,0.835,0c3.194,0,5.96-0.947,8.3-2.841c-1.486-0.037-2.795-0.492-3.927-1.365
		c-1.133-0.872-1.904-1.978-2.312-3.314c0.446,0.111,0.854,0.167,1.226,0.167c0.334,0,0.641-0.019,0.919-0.056
		c0.279-0.037,0.566-0.092,0.864-0.167c-1.56-0.334-2.851-1.104-3.872-2.313c-1.021-1.206-1.532-2.626-1.532-4.261v-0.056
		c0.446,0.223,0.919,0.408,1.42,0.557c0.501,0.149,1.067,0.224,1.699,0.224c-0.966-0.595-1.708-1.374-2.229-2.341
		c-0.521-0.965-0.78-2.041-0.78-3.23c0-1.188,0.297-2.32,0.892-3.398c1.671,2.081,3.695,3.742,6.072,4.986
		c2.376,1.244,4.958,1.922,7.743,2.033c-0.111-0.445-0.167-0.928-0.167-1.448c0-0.928,0.176-1.811,0.529-2.646
		c0.353-0.835,0.836-1.56,1.449-2.172c0.613-0.613,1.318-1.096,2.117-1.448c0.798-0.354,1.662-0.529,2.59-0.529
		c1.003,0,1.913,0.194,2.729,0.584c0.817,0.391,1.541,0.901,2.173,1.532c0.742-0.111,1.484-0.314,2.228-0.612
		c0.743-0.297,1.429-0.613,2.061-0.947c-0.594,1.56-1.579,2.785-2.952,3.677c0.705-0.074,1.373-0.204,2.005-0.39
		C-516.89-492.266-516.277-492.488-515.683-492.749z"/>
</g>
</svg>
